<svg viewBox="0 0 30 32" fill="none" xmlns="http://www.w3.org/2000/svg">
<path
       d="M 5.7128906 3.0058594 C 5.1675388 3.0058594 4.7167969 3.4644176 4.7167969 4.0097656 L 4.7167969 19.992188 C 4.7167969 20.537536 5.1675388 20.988281 5.7128906 20.988281 L 18.285156 20.988281 C 18.830508 20.988281 19.289062 20.537536 19.289062 19.992188 L 19.289062 4.0097656 C 19.289062 3.4644176 18.830508 3.0058594 18.285156 3.0058594 L 5.7128906 3.0058594 z M 7.5449219 5.2929688 L 16.455078 5.2929688 C 16.732078 5.2929688 16.955078 5.5159687 16.955078 5.7929688 L 16.955078 8.0039062 C 16.955078 8.2809063 16.732078 8.5039062 16.455078 8.5039062 L 7.5449219 8.5039062 C 7.2679219 8.5039062 7.0449219 8.2809063 7.0449219 8.0039062 L 7.0449219 5.7929688 C 7.0449219 5.5159687 7.2679219 5.2929688 7.5449219 5.2929688 z M 7.7050781 10.117188 L 7.7070312 10.117188 C 7.8440645 10.108116 7.9816543 10.132697 8.1074219 10.1875 C 8.5374781 10.37436 8.7389877 10.886674 8.5566406 11.316406 C 8.3729386 11.746857 7.8558213 11.956618 7.4238281 11.769531 C 6.9937719 11.582671 6.7922623 11.070357 6.9746094 10.640625 C 7.09979 10.344348 7.3828583 10.139865 7.7050781 10.117188 z M 10.490234 10.117188 L 10.492188 10.117188 C 10.62922 10.108116 10.766811 10.132697 10.892578 10.1875 C 11.322635 10.37436 11.524144 10.886674 11.341797 11.316406 C 11.158095 11.746857 10.640978 11.956618 10.208984 11.769531 C 9.7789286 11.582671 9.5774185 11.070357 9.7597656 10.640625 C 9.8849466 10.344348 10.168018 10.139865 10.490234 10.117188 z M 13.126953 10.117188 L 13.128906 10.117188 C 13.263482 10.108872 13.39786 10.134209 13.521484 10.1875 C 13.952915 10.373264 14.157452 10.885502 13.974609 11.316406 C 13.791179 11.746857 13.275354 11.955106 12.84375 11.769531 L 12.841797 11.769531 C 12.410883 11.583503 12.207892 11.071264 12.390625 10.640625 C 12.516661 10.342836 12.802753 10.139865 13.126953 10.117188 z M 15.875 10.117188 L 15.876953 10.117188 C 16.012178 10.108872 16.147372 10.133453 16.271484 10.1875 C 16.701541 10.37436 16.90305 10.886674 16.720703 11.316406 C 16.537001 11.746857 16.019883 11.956618 15.587891 11.769531 C 15.157834 11.582671 14.956325 11.070357 15.138672 10.640625 C 15.264708 10.342836 15.5508 10.139865 15.875 10.117188 z M 7.8613281 10.761719 C 7.7447637 10.711451 7.5933603 10.772955 7.5449219 10.886719 C 7.4978441 10.999727 7.5542986 11.145045 7.6699219 11.195312 C 7.7047653 11.210432 7.7432242 11.217376 7.78125 11.214844 L 7.7832031 11.214844 C 7.8729291 11.208419 7.952388 11.150817 7.9863281 11.070312 C 8.0334059 10.957305 7.9769477 10.811986 7.8613281 10.761719 z M 10.646484 10.761719 C 10.52992 10.711451 10.378517 10.772955 10.330078 10.886719 C 10.283 10.999727 10.339459 11.145045 10.455078 11.195312 C 10.489922 11.210432 10.528384 11.217376 10.566406 11.214844 L 10.568359 11.214844 C 10.658085 11.208419 10.737544 11.150817 10.771484 11.070312 C 10.818562 10.957305 10.762104 10.811986 10.646484 10.761719 z M 13.277344 10.761719 C 13.161036 10.712963 13.011068 10.773711 12.962891 10.886719 C 12.914974 10.999349 12.970933 11.144289 13.085938 11.195312 L 13.087891 11.195312 C 13.121785 11.210432 13.158462 11.217074 13.195312 11.214844 L 13.197266 11.214844 C 13.287532 11.209174 13.368177 11.151195 13.402344 11.070312 C 13.450261 10.957683 13.394297 10.812742 13.279297 10.761719 L 13.277344 10.761719 z M 16.025391 10.761719 C 15.908826 10.711451 15.757423 10.772955 15.708984 10.886719 C 15.661907 10.999727 15.718365 11.145045 15.833984 11.195312 C 15.868363 11.210432 15.905829 11.217111 15.943359 11.214844 L 15.945312 11.214844 C 16.035584 11.209174 16.116224 11.151195 16.150391 11.070312 C 16.197468 10.957305 16.14101 10.811986 16.025391 10.761719 z M 7.7050781 12.417969 L 7.7070312 12.417969 C 7.8440645 12.408898 7.9816543 12.433478 8.1074219 12.488281 C 8.5374781 12.675141 8.7389877 13.187454 8.5566406 13.617188 C 8.3729374 14.047638 7.8558206 14.257022 7.4238281 14.070312 C 6.9937719 13.883453 6.7922623 13.371139 6.9746094 12.941406 C 7.09979 12.645129 7.3828583 12.440646 7.7050781 12.417969 z M 10.490234 12.417969 L 10.492188 12.417969 C 10.62922 12.408898 10.766811 12.433478 10.892578 12.488281 C 11.322635 12.675141 11.524144 13.187454 11.341797 13.617188 C 11.158094 14.047638 10.640977 14.257022 10.208984 14.070312 C 9.7789286 13.883453 9.5774185 13.371139 9.7597656 12.941406 C 9.8849466 12.645129 10.168018 12.440646 10.490234 12.417969 z M 13.126953 12.417969 L 13.128906 12.417969 C 13.263482 12.409654 13.39786 12.434612 13.521484 12.488281 C 13.952915 12.674045 14.157452 13.186283 13.974609 13.617188 C 13.791178 14.047638 13.275353 14.255888 12.84375 14.070312 L 12.841797 14.070312 C 12.410883 13.884284 12.207892 13.372046 12.390625 12.941406 C 12.516661 12.643617 12.802753 12.440646 13.126953 12.417969 z M 15.875 12.417969 L 15.876953 12.417969 C 16.012178 12.409654 16.147372 12.434234 16.271484 12.488281 C 16.701541 12.675141 16.90305 13.187454 16.720703 13.617188 C 16.537 14.047638 16.019883 14.257022 15.587891 14.070312 C 15.157834 13.883453 14.956325 13.371139 15.138672 12.941406 C 15.264708 12.643617 15.5508 12.440646 15.875 12.417969 z M 7.8613281 13.0625 C 7.7447637 13.012232 7.5933603 13.073736 7.5449219 13.1875 C 7.4978441 13.300508 7.5542986 13.445826 7.6699219 13.496094 C 7.7047653 13.511212 7.7432242 13.518119 7.78125 13.515625 L 7.7832031 13.515625 C 7.8729291 13.5092 7.952388 13.45122 7.9863281 13.371094 C 8.0334059 13.257708 7.9769477 13.112768 7.8613281 13.0625 z M 10.646484 13.0625 C 10.52992 13.012232 10.378517 13.073736 10.330078 13.1875 C 10.283 13.300508 10.339459 13.445826 10.455078 13.496094 C 10.489922 13.511212 10.528384 13.518119 10.566406 13.515625 L 10.568359 13.515625 C 10.658085 13.5092 10.737544 13.45122 10.771484 13.371094 C 10.818562 13.257708 10.762104 13.112768 10.646484 13.0625 z M 13.277344 13.0625 C 13.161036 13.013744 13.011068 13.074492 12.962891 13.1875 C 12.914974 13.30013 12.970933 13.44507 13.085938 13.496094 L 13.087891 13.496094 C 13.121785 13.511212 13.158462 13.517855 13.195312 13.515625 L 13.197266 13.515625 C 13.287532 13.509956 13.368177 13.451976 13.402344 13.371094 C 13.450261 13.258086 13.394297 13.113524 13.279297 13.0625 L 13.277344 13.0625 z M 16.025391 13.0625 C 15.908826 13.012232 15.757423 13.073736 15.708984 13.1875 C 15.661907 13.300508 15.718365 13.445826 15.833984 13.496094 C 15.868363 13.511212 15.905829 13.517893 15.943359 13.515625 L 15.945312 13.515625 C 16.035584 13.509956 16.116224 13.451976 16.150391 13.371094 C 16.197468 13.257708 16.14101 13.112768 16.025391 13.0625 z M 7.7050781 14.796875 L 7.7070312 14.796875 C 7.8440645 14.787804 7.9816543 14.812383 8.1074219 14.867188 C 8.5374781 15.054047 8.7389877 15.566361 8.5566406 15.996094 C 8.3729374 16.426544 7.8558206 16.635927 7.4238281 16.449219 C 6.9937719 16.262359 6.7922623 15.750046 6.9746094 15.320312 C 7.09979 15.024035 7.3828583 14.819552 7.7050781 14.796875 z M 10.490234 14.796875 L 10.492188 14.796875 C 10.62922 14.787804 10.766811 14.812383 10.892578 14.867188 C 11.322635 15.054047 11.524144 15.566361 11.341797 15.996094 C 11.158094 16.426544 10.640977 16.635927 10.208984 16.449219 C 9.7789286 16.262359 9.5774185 15.750046 9.7597656 15.320312 C 9.8849466 15.024035 10.168018 14.819552 10.490234 14.796875 z M 13.126953 14.796875 L 13.128906 14.796875 C 13.263482 14.78856 13.39786 14.813895 13.521484 14.867188 C 13.952915 15.052913 14.157452 15.56519 13.974609 15.996094 C 13.791178 16.426544 13.275353 16.634794 12.84375 16.449219 L 12.841797 16.449219 C 12.410883 16.26319 12.207892 15.750953 12.390625 15.320312 C 12.516661 15.022524 12.802753 14.819552 13.126953 14.796875 z M 15.875 14.796875 L 15.876953 14.796875 C 16.012178 14.78856 16.147372 14.813139 16.271484 14.867188 C 16.701541 15.054047 16.90305 15.566361 16.720703 15.996094 C 16.537 16.426544 16.019883 16.635927 15.587891 16.449219 C 15.157834 16.262359 14.956325 15.750046 15.138672 15.320312 C 15.264708 15.022524 15.5508 14.819552 15.875 14.796875 z M 7.8613281 15.441406 C 7.7447637 15.391139 7.5933603 15.452642 7.5449219 15.566406 C 7.4978441 15.679792 7.5542986 15.824732 7.6699219 15.875 C 7.7047653 15.890118 7.7432242 15.897026 7.78125 15.894531 L 7.7832031 15.894531 C 7.8729291 15.888106 7.952388 15.830504 7.9863281 15.75 C 8.0334059 15.636614 7.9769477 15.491674 7.8613281 15.441406 z M 10.646484 15.441406 C 10.52992 15.391139 10.378517 15.452642 10.330078 15.566406 C 10.283 15.679792 10.339459 15.824732 10.455078 15.875 C 10.489922 15.890118 10.528384 15.897026 10.566406 15.894531 L 10.568359 15.894531 C 10.658085 15.888106 10.737544 15.830504 10.771484 15.75 C 10.818562 15.636614 10.762104 15.491674 10.646484 15.441406 z M 13.277344 15.441406 C 13.161036 15.39265 13.011068 15.453398 12.962891 15.566406 C 12.914974 15.679414 12.970933 15.823976 13.085938 15.875 L 13.087891 15.875 C 13.121785 15.890118 13.158462 15.896761 13.195312 15.894531 L 13.197266 15.894531 C 13.287532 15.888862 13.368177 15.830882 13.402344 15.75 C 13.450261 15.636992 13.394297 15.49243 13.279297 15.441406 L 13.277344 15.441406 z M 16.025391 15.441406 C 15.908826 15.391139 15.757423 15.452642 15.708984 15.566406 C 15.661907 15.679792 15.718365 15.824732 15.833984 15.875 C 15.868363 15.890118 15.905829 15.896799 15.943359 15.894531 L 15.945312 15.894531 C 16.035584 15.888862 16.116224 15.830882 16.150391 15.75 C 16.197468 15.636614 16.14101 15.491674 16.025391 15.441406 z M 7.7050781 17.328125 L 7.7070312 17.328125 C 7.8440645 17.319054 7.9816543 17.343633 8.1074219 17.398438 C 8.5374781 17.58526 8.7389877 18.097611 8.5566406 18.527344 C 8.3729374 18.957794 7.8558206 19.167177 7.4238281 18.980469 C 6.9937719 18.793609 6.7922623 18.281296 6.9746094 17.851562 C 7.09979 17.555248 7.3828583 17.350802 7.7050781 17.328125 z M 10.490234 17.328125 L 10.492188 17.328125 L 10.496094 17.328125 C 10.63067 17.31981 10.765047 17.344767 10.888672 17.398438 C 11.320102 17.584163 11.524639 18.09644 11.341797 18.527344 C 11.158094 18.957794 10.640977 19.167177 10.208984 18.980469 C 9.7789286 18.793609 9.5774185 18.281296 9.7597656 17.851562 C 9.8849466 17.555248 10.168018 17.350802 10.490234 17.328125 z M 13.126953 17.328125 L 13.128906 17.328125 C 13.263482 17.31981 13.39786 17.344767 13.521484 17.398438 C 13.952915 17.584163 14.157452 18.09644 13.974609 18.527344 C 13.791178 18.957794 13.275353 19.166044 12.84375 18.980469 L 12.841797 18.980469 C 12.410883 18.79444 12.207892 18.282203 12.390625 17.851562 C 12.516661 17.553736 12.802753 17.350802 13.126953 17.328125 z M 15.875 17.328125 L 15.876953 17.328125 C 16.012178 17.31981 16.147372 17.344389 16.271484 17.398438 C 16.701541 17.58526 16.90305 18.097611 16.720703 18.527344 C 16.537 18.957794 16.019883 19.167177 15.587891 18.980469 C 15.157834 18.793609 14.956325 18.281296 15.138672 17.851562 C 15.264708 17.553736 15.5508 17.350802 15.875 17.328125 z M 7.8613281 17.972656 C 7.7447637 17.922389 7.5933603 17.983892 7.5449219 18.097656 C 7.4978441 18.210664 7.5542986 18.355982 7.6699219 18.40625 C 7.7047653 18.421368 7.7432242 18.428314 7.78125 18.425781 L 7.7832031 18.425781 C 7.8729291 18.419356 7.952388 18.361754 7.9863281 18.28125 C 8.0334059 18.168242 7.9769477 18.022924 7.8613281 17.972656 z M 10.646484 17.972656 C 10.52992 17.922389 10.378517 17.983892 10.330078 18.097656 C 10.282161 18.210286 10.338125 18.355226 10.453125 18.40625 L 10.455078 18.40625 C 10.488969 18.421368 10.52565 18.428049 10.5625 18.425781 L 10.568359 18.425781 C 10.658085 18.419356 10.737544 18.361754 10.771484 18.28125 C 10.818562 18.168242 10.762104 18.022924 10.646484 17.972656 z M 13.277344 17.972656 C 13.161036 17.9239 13.011068 17.984648 12.962891 18.097656 C 12.914974 18.210286 12.970933 18.355226 13.085938 18.40625 L 13.087891 18.40625 C 13.121785 18.421368 13.158462 18.428049 13.195312 18.425781 L 13.197266 18.425781 C 13.287532 18.420112 13.368177 18.362132 13.402344 18.28125 C 13.450261 18.16862 13.394297 18.02368 13.279297 17.972656 L 13.277344 17.972656 z M 16.025391 17.972656 C 15.908826 17.922389 15.757423 17.983892 15.708984 18.097656 C 15.661907 18.210664 15.718365 18.355982 15.833984 18.40625 C 15.868363 18.421368 15.905829 18.428087 15.943359 18.425781 L 15.945312 18.425781 C 16.035584 18.420112 16.116224 18.362132 16.150391 18.28125 C 16.197468 18.168242 16.14101 18.022924 16.025391 17.972656 z "
       id="rect1041" fill="#ff7a00" stroke="white" stroke-width="0"/>
</svg>